# xmcd CD database file generated by OrangeCD 4.2
#
# Track frame offsets:
#	150
#	11857
#	23492
#	38140
#	49025
#	62170
#	73485
#	87507
#	99115
#	113507
#	126252
#	140515
#	153810
#	169120
#
# Disc length: 2421 seconds
#
# Revision: 5
# Processed by: cddbd v1.4PL0 Copyright (c) Steve Scherf et al.
# Submitted via: OrangeCD 4.2
#
DISCID=b509730e
DTITLE=Sonny Terry - Sonny Terry and his Mouth-Harp
DYEAR=1999
DGENRE=Blues
TTITLE0=In The Evening
TTITLE1=Move To Kansas City
TTITLE2=John Henry
TTITLE3=The Fox chase (aka Hound Dog Holler)
TTITLE4=Louise
TTITLE5=Red River
TTITLE6=Goodbye Leadbelly
TTITLE7=Custard Pie
TTITLE8=I Woke Up This Morning And Could Hardly See
TTITLE9=Old Woman Blues
TTITLE10=Talkin' About The Blues
TTITLE11=Changed The Lock On My Door
TTITLE12=Moanin' And Mournin'
TTITLE13=Baby, Baby
EXTD=
EXTT0=
EXTT1=
EXTT2=
EXTT3=
EXTT4=
EXTT5=
EXTT6=
EXTT7=
EXTT8=
EXTT9=
EXTT10=
EXTT11=
EXTT12=
EXTT13=
PLAYORDER=
